<?xml version="1.0" encoding="utf-8"?>
<!-- Generator: Adobe Illustrator 27.8.1, SVG Export Plug-In . SVG Version: 6.00 Build 0)  -->
<svg version="1.1" id="Layer_2_00000156571489727549800430000003530302192383424166_"
	 xmlns="http://www.w3.org/2000/svg" xmlns:xlink="http://www.w3.org/1999/xlink" x="0px" y="0px" viewBox="0 0 881.5 1080.2"
	 style="enable-background:new 0 0 881.5 1080.2;" xml:space="preserve">
<style type="text/css">
	.st0{fill:#EDEDED;}
</style>
<g id="Layer_1-2">
	<path class="st0" d="M430.1,488.2c4.8-10.2,6.9-25.2,7.8-36.6c-29.5,1.2-53.3,24.8-54.6,54.2c6.3-0.5,12.4-1.2,16.8-1.8
		C415.2,501.7,425.1,498.6,430.1,488.2L430.1,488.2z"/>
	<path class="st0" d="M383.3,509.9c0.8,30,24.8,54.3,54.7,55.4c-1-10.8-2.5-21-4.6-28.6C427.6,515.8,415,512.2,383.3,509.9
		L383.3,509.9z"/>
	<path class="st0" d="M772.7,396.3c-9.2-21.1-20.1-41.2-33.3-60.1c-13.1-18.3-27.5-36.3-44-52.2c-16.5-16.2-34.2-30.5-53.4-43.1
		c-4-2.7-7.9-5.5-12.5-7.6c95.3,62.6,157.9,171,157.9,294.6v6.7c0,89.5-34.8,170.7-92.2,231.7c-39.7,43.1-89.8,76.2-146.4,94.9
		c-1.9-6.6-4.1-14.4-6.5-22.8c8.5-2.8,16.9-6,25.2-9.5c38.8-16.5,73.9-40,103.8-70.2c30.2-30.2,53.7-65,70.2-103.8
		c17.1-40.3,26-83.1,26-127c0-44-8.9-87-26-127c-16.5-38.8-40-73.9-70.2-103.8c-30.2-30.2-65-53.7-103.8-70.2
		c-39.7-17.4-82.7-26-127-26s-87,8.9-127,26c-38.8,16.5-73.9,40-103.8,70.2c-29.9,30.2-53.7,65-70.2,103.8
		c-17.1,40.3-26,83.1-26,127c0,44,8.9,87,26,127c16.5,38.8,40,73.9,70.2,103.8c30.2,30.2,65,53.7,103.8,70.2
		c8.2,3.5,16.5,6.6,24.9,9.4c-2.3,8.4-4.6,16.2-6.5,22.9c-56.5-18.8-106.5-51.8-146.3-94.8C127.8,705.3,93,623.8,93,534.6v-6.7
		c0-123.3,62.9-231.7,157.9-294.6c-4.3,2.4-8.2,5.5-12.5,7.6c-18.6,12.8-36.3,27.2-52.8,43.1c-16.5,16.2-30.8,33.9-44,52.2
		c-13.1,18.9-24.1,38.8-33.3,60.1c-18.9,43.7-28.1,89.8-28.1,138s9.8,94.3,28.1,138c9.2,21.1,20.1,41.2,33.3,60.1
		c13.1,18.3,27.5,36.3,44,52.2c16.5,16.2,34.2,30.5,53.4,43.1c19.2,12.8,40,23.8,61.4,32.7c9.4,3.9,19,7.4,28.7,10.5
		c-1.4,4.9-2.5,8.5-2.9,10.3c-2.4,9.4-7,31.1-5.3,38.4c0,0-0.2,7.3,48,7.1c28.3-0.1,110-0.2,142.9,0c48.2,0.2,48-7.1,48-7.1
		c1.7-7.4-2.9-29-5.3-38.4c-0.4-1.7-1.4-5.2-2.8-10c10-3.1,19.9-6.7,29.6-10.7c21.4-9.2,41.8-19.8,61.4-32.7
		c19.2-12.8,36.9-27.2,53.4-43.1c16.5-16.2,30.8-33.9,44-52.2c13.1-18.9,24.1-38.8,33.3-60.1c18.9-43.7,28.1-89.8,28.1-138
		S791.3,440,772.7,396.3L772.7,396.3z M580.7,388.5c35.4,35.7,57.3,84.9,57.3,139.1c0,78.8-46.2,146.8-113,178.6
		c1.8-16.5,4.3-31.1,5.8-42.6c9.9-76.1,44-120.5,49.4-217.6C581.3,425,581.4,405.9,580.7,388.5L580.7,388.5z M525,727.9
		c26.3-10.7,49.2-26.6,69-46.7c19.8-19.8,35.4-43.4,46.7-69c11.3-26.9,17.1-55.3,17.1-84.6s-6.1-58-17.1-84.6
		c-10.7-26.3-26.6-49.2-46.7-69c-4.8-4.8-9.9-9.4-15.1-13.7c-5-55.1-16.7-85.7-17.1-86.7H318.7c-0.3,1-12.1,31.6-17.1,86.7
		c-5.1,4.3-10,8.9-14.7,13.7c-19.8,19.8-35.4,43.4-46.7,69c-11.3,26.9-17.1,55.3-17.1,84.6s6.1,58,17.1,84.6
		c10.7,26.3,26.6,49.2,46.7,69c19.8,19.8,43.4,35.4,69,46.7c0.4,0.2,0.9,0.4,1.3,0.5c0.3,6.7,0.3,13.6,0,20.6
		c-0.5,12.6-4.4,32.3-9.4,52.6c-114.3-38.6-196.6-146.7-196.6-274c0-159.7,129.5-289.1,289.1-289.1s289.1,129.5,289.1,289.1
		c0,127.4-82.5,235.6-197,274.1c-4.9-20.4-8.9-40-9.4-52.7c-0.3-6.9-0.2-13.8,0-20.4C523.9,728.4,524.5,728.1,525,727.9L525,727.9z
		 M300.4,446c5.4,97,39.4,141.5,49.4,217.6c1.5,11.4,4,26,5.8,42.4c-66.5-31.8-112.6-99.8-112.6-178.3c0-54,21.7-102.9,56.9-138.6
		C299.1,406.3,299.2,425.3,300.4,446L300.4,446z M351.5,507.9c0,0,12.8-0.6,26.1-1.7c0.3-7.7,1.9-15.1,4.9-22.2
		c3.3-7.4,7.7-14.2,13.5-19.9c5.7-5.8,12.3-10.4,19.9-13.5c7.1-2.9,14.6-4.6,22.5-4.9c0.8-13.4,2-36,2-36s1.1,22.6,1.9,36
		c7.8,0.2,15.3,1.8,22.4,4.9c7.4,3.3,14.2,7.7,19.9,13.5c5.8,5.7,10.4,12.3,13.5,19.9c2.9,7,4.6,14.6,4.9,22.3
		c12.9,1,25.4,1.6,26.2,1.6c-9.9,0.6-18.5,1.1-26.2,1.6c-0.1,8.1-1.8,15.9-4.9,23.3c-3.3,7.4-7.7,14.2-13.5,19.9
		c-5.7,5.8-12.3,10.4-19.9,13.5c-7.1,2.9-14.7,4.6-22.5,4.9c-1.4,18.1-1.7,36.7-1.8,46.1c0-9.4-0.3-28-1.8-46.1
		c-7.9-0.2-15.5-1.9-22.7-4.9c-7.4-3.3-14.2-7.7-19.9-13.5c-5.8-5.7-10.4-12.3-13.5-19.9c-3-7.3-4.8-15.2-4.9-23.3
		C369.9,509,361.3,508.5,351.5,507.9z M120.5,527.6c0-176.5,143.2-320,320-320s320,143.5,320,320c0,141.6-92.4,261.9-220.1,304
		c-1.7-6.4-3.5-13.1-5.2-19.8c7.3-2.4,14.5-5.2,21.6-8.2c35.4-15,67.5-36.6,95.3-64.1c27.5-27.5,48.8-59.2,64.1-95.3
		c15.6-36.9,23.5-75.7,23.5-116.3s-7.9-79.4-23.5-116.3c-15-35.4-36.6-67.5-64.1-95.3c-27.5-27.5-59.2-48.8-95.3-64.1
		c-36.9-15.6-75.7-23.5-116.3-23.5s-79.4,7.9-116.3,23.5c-35.4,15-67.5,36.6-95.3,64.1c-27.8,27.5-48.8,59.2-64.1,95.3
		c-15.6,36.9-23.5,75.7-23.5,116.3s7.9,79.4,23.5,116.3c15,35.4,36.6,67.5,64.1,95.3c27.5,27.5,59.2,48.8,95.3,64.1
		c7,3,14.1,5.6,21.3,8c-1.7,6.7-3.5,13.4-5.2,19.8C212.7,789.3,120.5,669.1,120.5,527.6L120.5,527.6z"/>
	<path class="st0" d="M480.4,504c4.4,0.7,10.4,1.3,16.7,1.8c-1.3-29.4-24.9-53.1-54.5-54.3c0.9,11.5,2.9,26.5,7.8,36.7
		C455.3,498.6,465.4,501.7,480.4,504z"/>
	<path class="st0" d="M447.1,536.7c-2.1,7.6-3.6,17.8-4.6,28.6c29.8-1.2,53.8-25.5,54.5-55.4C465.5,512.2,453,515.9,447.1,536.7z"/>
	<path class="st0" d="M318.5,962.7h23.5v70.5c0,7.6-0.3,15.6,0.3,23.5c7.6,0,14.4,0.3,21.7-0.3v-93.7h23.5v-14.4h-69L318.5,962.7
		L318.5,962.7z"/>
	<path class="st0" d="M433,1057.3h21.4V948.7H433V1057.3z"/>
	<path class="st0" d="M167.4,949.3c-2.1-0.6-4.6-0.9-7-0.9h-45.8c-7.6,0-12.8,2.1-12.8,12.8c0.3,24.4,0,48.8,0,73.9v13.1
		c0.3,5.8,2.1,7.9,7.3,9.5c2.4,0.6,4.6,0.9,7,0.9h41.5c2.4,0,5.5-0.3,7.6-0.9c5.5-1.2,7.3-3.7,7.3-9.5v-22.3c0-1.5-0.3-3.4-0.6-4.9
		c-6.1-0.6-12.5-0.6-19.8-0.6v22.3H125c-1.5-9.5-0.9-75.4,0.6-80.3h26.6v21.1h21.4v-27.2C173.5,952.6,171.1,950.2,167.4,949.3
		L167.4,949.3z"/>
	<path class="st0" d="M238.2,1057.3h21.4V948.7h-21.4V1057.3z"/>
	<path class="st0" d="M628.1,1042.4v-33.3h31.8v-14.4h-31.4c-1.2-7.3-1.2-26.6,0.3-31.4h36.6V949c-20.5-0.3-40-0.3-59.8-0.3v108.7
		h60.1V1043h-19.2C640.4,1042.7,633.9,1043.9,628.1,1042.4L628.1,1042.4z"/>
	<path class="st0" d="M757.9,1008.2c-0.6,0-1.2,0.3-2.1,0.3c-4.3-8.2-9.2-17.1-13.4-25.3c-5.5-10.1-10.4-20.1-15.9-30.5
		c-0.9-2.1-2.7-4-4.3-4.3c-5.8-0.6-11-0.3-17.1-0.3v109h21.4v-62c0.3,0,0.9,0,1.2-0.3c10.4,20.8,21.1,41.5,31.8,62.6
		c6.4,0,12.8,0.3,18.9-0.3V948.3h-21.1C757.9,968.8,757.9,988.6,757.9,1008.2L757.9,1008.2z"/>
	<path class="st0" d="M561,962.7c2.1-4.6,2.7-9.2,1.5-13.7c-9.2-1.5-58.3-0.9-62.6,0.3v14h36.6c-1.5,3.4-2.4,6.1-3.7,8.2
		c-11.3,24.1-22.9,48.2-34.5,72.1c-2.1,4.6-2.7,8.6-1.2,13.7h65.9v-15h-39.7c0.9-2.1,1.5-3.4,2.1-4.9
		C537.2,1012.8,549.4,987.4,561,962.7L561,962.7z"/>
	<path class="st0" d="M326.8,876.9c-4.6-3.7-9.5-3.1-14-2.7c-14.7,1.5-28.4,6.4-41.5,13.4c-11.6,6.1-22,14.4-30.2,24.7
		c-1.2,2.7-2.1,5.5-4,7.6c7.9,2.1,14.7,2.1,23.8,0.3c20.8-4,38.8-13.7,54.7-27.2c3.1-2.4,5.8-5.8,7.9-8.9
		C324.9,882.1,325.9,879.3,326.8,876.9L326.8,876.9z"/>
	<path class="st0" d="M555.2,877.2c0.6,6.1,4.3,9.8,7.9,13.1c16.8,15.6,36,26.6,58.6,30.5c7.3,1.2,14.7,2.1,23.5-0.6
		c-4-4.9-6.7-9.8-10.4-13.4c-11.3-12.5-26.3-20.5-41.8-26.6c-9.2-3.1-18-5.8-27.5-6.1C561.9,874.5,557.6,874.2,555.2,877.2z"/>
	<path class="st0" d="M680.6,883.3c-21.1-18-45.8-24.7-72.7-24.4c-4-0.6-8.6-0.3-11.6,3.7c1.5,5.5,2.1,7,7.6,10.7
		c7.6,5.5,15.9,10.1,24.4,14c14.4,6.4,29.6,9.8,45.2,9.2c5.5-0.3,10.4-0.9,16.5-3.4C686.8,889.4,684,886,680.6,883.3L680.6,883.3z"
		/>
	<path class="st0" d="M283.4,867.7c2.7-4,2.1-6.1-2.7-7.6c-0.9-0.3-2.1-0.6-3.1-0.6c-6.7,0-14-0.3-20.8,0.3
		c-18.9,2.1-36.3,8.2-51.3,19.5c-5.5,3.7-10.1,7.9-14,14c3.1,0.9,5.5,1.5,7.3,2.1c30.5,4.3,57.4-5.5,81.2-23.8
		C281.3,870.8,282.5,869.3,283.4,867.7L283.4,867.7z"/>
	<path class="st0" d="M716.7,850.9c-19.2-11.6-40.3-15-62.3-14c-4.6,0.3-9.8,0.9-14.4,2.1c-3.1,0.6-6.4,1.5-7.6,4.9
		c11,20.5,71.4,30.8,96.5,16.2C724.6,856.8,721,853.7,716.7,850.9L716.7,850.9z"/>
	<path class="st0" d="M237.6,854.6c4.9-2.7,9.8-5.2,11.9-11c-2.4-3.1-6.1-4.3-9.5-4.9c-10.7-2.4-22-2.4-33.3-1.2
		c-15.6,1.5-30.2,6.1-43.1,14.4c-3.7,2.4-7.3,4.9-10.4,9.8c3.7,1.5,6.7,2.7,10.1,3.7c10.4,3.1,21.1,3.4,31.8,2.1
		C209.9,865.9,224.5,861.6,237.6,854.6L237.6,854.6z"/>
	<path class="st0" d="M667.5,820.4c2.4,4.3,6.1,6.4,10.1,7.6c8.9,2.4,17.7,5.5,26.6,6.4c16.5,2.4,33,1.5,48.2-4.6
		c4-1.5,7.3-3.7,12.5-6.1c-4-2.4-6.4-4.3-9.5-6.1c-10.7-6.1-22.3-8.2-34.5-9.5c-14.4-1.2-28.4,0-42.1,4.3
		C674.9,814.3,670.3,815.8,667.5,820.4L667.5,820.4z"/>
	<path class="st0" d="M145.4,811.3c-10.1,1.8-19.2,5.5-28.4,12.8c4.9,2.4,8.9,4.6,12.8,6.1c15.6,6.1,31.4,6.7,47.6,4.6
		c9.5-1.2,18.3-4.3,27.2-6.7c4-1.2,7.3-3.4,9.8-7.6c-3.4-4.9-8.9-6.4-14-7.9C182.1,807.6,163.8,806.7,145.4,811.3L145.4,811.3z"/>
	<path class="st0" d="M733.8,776.4c-7.6,2.1-15.6,4.6-22.9,7.6c-4.3,2.4-7.9,4.6-10.4,10.7c3.4,1.5,6.1,3.7,9.2,4.3
		c5.8,1.5,11,2.7,16.8,3.1c19.8,2.1,39.4-0.6,57.4-10.1c4.3-2.1,8.2-5.5,14-9.2c-5.8-2.1-9.5-4.3-13.4-5.8
		C767.7,771.6,750.6,772.5,733.8,776.4L733.8,776.4z"/>
	<path class="st0" d="M168.6,799.6c2.7-0.6,5.8-1.5,7.9-2.7c4.9-2.4,5.5-4.9,0.9-8.2c-2.1-2.1-4.6-3.4-7-4.6
		c-20.1-9.2-41.2-12.5-63.2-9.2c-7.6,1.8-14.7,4-21.7,8.2c6.1,6.1,13.1,10.1,20.5,12.5C126.5,803,147.3,804.5,168.6,799.6
		L168.6,799.6z"/>
	<path class="st0" d="M141.8,767.3c3.7-0.3,7.6-0.9,10.1-4.6c-8.2-20.8-65-35.1-91.9-22.6c3.7,3.4,6.4,6.4,9.8,8.9
		C91.4,764.8,116.1,769.4,141.8,767.3L141.8,767.3z"/>
	<path class="st0" d="M784.8,735.2c-16.5,2.1-31.4,7.3-45.2,16.2c-3.1,2.1-6.1,4.6-8.2,7c-2.4,2.7-2.1,4.9,1.5,6.1
		c3.7,1.2,7.9,2.4,12.2,2.4c8.9,0,17.7-0.3,26.3-1.5c16.8-2.7,32.7-9.2,45.5-20.5c0.9-1.2,2.4-3.1,4.9-5.8c-3.7-1.2-5.8-2.1-7.6-2.4
		C804.3,734.3,794.5,734,784.8,735.2L784.8,735.2z"/>
	<path class="st0" d="M127.7,727.9c-1.2-6.1-5.5-9.5-9.5-12.8c-15.9-12.8-33.9-21.1-54-23.5c-7.6-0.9-15.6-1.2-23.8,1.5
		c3.1,5.5,6.4,9.5,10.4,13.1c18.3,15.9,40.3,23.5,64.1,25C119.5,731.3,123.7,731.3,127.7,727.9L127.7,727.9z"/>
	<path class="st0" d="M830.6,690.7c-26.6-0.6-48.5,9.5-68.4,26c-2.4,2.1-4.6,4.6-6.1,7.3c-2.1,3.1-0.9,4.9,2.4,6.1
		c2.7,0.6,6.1,1.2,9.2,0.9c23.8-1.5,45.2-9.2,63.5-25c3.1-3.1,6.7-7.9,10.1-11.9c-0.3-0.6-0.6-1.2-0.6-2.1
		C837.3,691.6,833.9,690.7,830.6,690.7L830.6,690.7z"/>
	<path class="st0" d="M99.3,691c2.1,0,4.3-0.9,6.4-1.2c-0.6-6.1-1.5-7.9-6.1-12.8c-14.4-15.9-31.8-27.2-53.1-32.7
		c-5.8-1.5-12.5-2.4-20.1-1.2c2.4,7,6.7,12.5,11.3,17.4c14.4,15,31.8,24.1,51.6,29.3C92.6,690.7,96,691,99.3,691L99.3,691z"/>
	<path class="st0" d="M841.2,643.3c-24.4,4-44,16.5-60.1,34.5c-3.4,3.1-4.6,6.7-7.3,11.3c6.1,3.4,11,2.4,15.9,1.5
		c14-2.7,26.6-8.9,38.5-16.5c10.1-6.4,18.3-14.4,24.7-25c0.9-2.1,2.1-3.7,2.7-6.1c-3.1-0.3-4.9-0.3-6.7-0.3
		C846.4,642.7,843.4,643,841.2,643.3L841.2,643.3z"/>
	<path class="st0" d="M78.3,649.7c3.1,1.2,6.4,1.2,9.8,1.5c2.7,0,4-1.5,3.4-4.3c-0.9-2.7-2.1-6.1-3.4-8.2
		c-13.7-20.5-31.4-35.4-55-42.7c-4.6-1.5-8.9-1.8-14-3.1c1.2,7,3.7,11.6,6.7,16.5C38.6,629,56.6,641.5,78.3,649.7L78.3,649.7z"/>
	<path class="st0" d="M804.9,624.4c-4.9,5.5-9.2,11.3-13.1,17.4c-2.1,2.4-3.1,6.1-1.5,9.5c5.5,2.1,10.1,0,14.4-1.5
		c15-5.8,28.4-14.4,39.7-26.3c6.1-6.4,11.6-13.7,15-22c2.1-2.4,2.7-4.9,3.7-7.6c-3.7,0.3-6.4,0.3-9.5,0.9
		C833.9,598.7,818.4,609.4,804.9,624.4L804.9,624.4z"/>
	<path class="st0" d="M70.6,608.8c1.5,0.9,3.4,1.2,4.9,1.5c2.1,0.3,3.7,0,5.8,0c0.9-5.5,0.9-7.3-2.1-13.1
		c-10.1-19.8-23.8-36-43.7-46.7c-5.8-2.4-11.9-3.7-17.4-6.1c-0.3,2.1-0.6,2.7-0.3,3.4c0.6,2.4,0.9,4.6,2.1,6.7
		C29.4,579.5,47.1,596.6,70.6,608.8L70.6,608.8z"/>
	<path class="st0" d="M801.3,601.8c-0.9,2.4-0.6,5.5-0.9,7.9c6.1,0.9,7.6,0.9,13.4-2.1c19.8-10.4,35.4-25.3,45.5-45.8
		c2.7-4.6,4.9-10.1,4.6-16.8c-2.4,0.6-4,0.6-5.8,1.2C830.6,556,812.9,575.8,801.3,601.8L801.3,601.8z"/>
	<path class="st0" d="M65.1,564.6c2.1,2.1,4.9,3.7,10.4,2.4c-0.3-3.7,0-7.3-0.9-10.7c-1.2-4.6-2.7-9.5-4.9-13.7
		c-8.2-17.7-19.8-33-36.9-43.1c-3.4-2.1-6.7-3.4-10.7-5.5c0,3.4-0.3,6.1,0,7.9C27.6,528.8,42.8,549,65.1,564.6L65.1,564.6z"/>
	<path class="st0" d="M829,515.1c-10.7,12.8-18.9,26.6-22.6,43.1c-0.6,3.7-0.9,6.4,2.1,9.8c2.4-0.9,5.8-1.5,7.6-3.1
		c22.6-14.7,37.9-34.5,43.7-61.4c0.6-2.7,0.3-6.1,0.6-10.1c-4,2.1-6.7,2.7-9.8,4C842.5,501.7,835.1,507.8,829,515.1L829,515.1z"/>
	<path class="st0" d="M62.1,519.4c2.4,2.4,6.1,3.7,9.8,6.1c3.7-5.5,3.1-10.4,2.1-15c-3.7-19.8-12.2-37.6-26.3-51.9
		c-4.9-6.1-10.4-10.4-17.7-13.4c-0.3,3.7-0.9,6.4-0.6,9.5C31.5,480.9,43.4,501.6,62.1,519.4L62.1,519.4z"/>
	<path class="st0" d="M807.4,514.8c-0.6,3.1-0.3,6.4,2.1,9.2c21.4-4.3,46.7-51.6,41.8-79.1c-3.7,2.4-7,4-10.1,6.4
		C821.4,467.8,811.3,489.8,807.4,514.8z"/>
	<path class="st0" d="M62.7,466.2c2.7,3.4,5.5,7,11.6,8.2c0.9-3.1,2.1-5.8,2.1-8.2c0.6-26.6-7.3-50.7-26.6-69.6
		c-2.1-2.1-4-3.4-6.4-5.5c-0.6,2.1-1.2,2.7-1.5,4c-2.1,8.2-1.5,16.5,0,24.7C45,436.9,52,452.5,62.7,466.2L62.7,466.2z"/>
	<path class="st0" d="M808.3,474.5c4.9-0.6,7.6-4.3,10.4-7.6c11-14.4,18.3-30.5,20.8-47.9c1.8-9.5,2.1-18.3-1.2-27.8
		c-2.4,2.1-4.3,3.1-6.1,4.6c-19.5,18.9-26.9,42.7-27.2,69.3C804.9,468.1,805.5,471.4,808.3,474.5L808.3,474.5z"/>
	<path class="st0" d="M74.3,420.1c1.8,4,4.3,7.9,9.2,9.2c3.7-2.7,4.3-6.4,4.9-10.4c1.5-8.9,0.9-17.4,0-26.3
		c-2.1-14.7-6.4-29.3-15.6-41.2c-2.1-2.7-4.6-4.9-7-7.9c-0.9,2.4-1.5,3.7-2.1,5.5c-3.1,9.5-3.4,18.9-2.7,28.4
		C62.1,392.4,66.7,407,74.3,420.1L74.3,420.1z"/>
	<path class="st0" d="M793.9,422c0.6,3.1,1.2,6.1,4.3,7.3c19.5-9.5,30.5-64.1,17.7-85.2c-2.1,2.1-4.3,4.3-6.1,6.7
		c-8.2,10.7-13.1,23.5-15.6,37.3C792.1,399.1,791.8,410.7,793.9,422L793.9,422z"/>
	<path class="st0" d="M97.8,388.1c4.9-3.1,6.1-6.7,7-10.4c3.7-14.4,4.3-28.4,2.1-42.7c-1.5-10.4-4.9-20.5-10.7-29.3
		c-0.9-1.2-2.1-2.4-3.7-4c-1.5,3.4-3.1,5.8-4,8.2c-8.9,24.4-6.1,47.9,4,71.1C93.5,383.5,96.3,385.3,97.8,388.1L97.8,388.1z"/>
	<path class="st0" d="M782.9,387.5c3.7-1.2,5.8-4.3,6.7-7.3c9.5-22.3,11.6-44.9,4.3-68.4c-1.2-3.4-3.1-6.4-5.5-10.7
		c-2.4,3.4-4.3,5.8-5.8,7.9c-12.2,23.2-13.1,47-6.1,71.8C778.4,383.2,779.9,386.3,782.9,387.5L782.9,387.5z"/>
	<path class="st0" d="M735,305.3c4-4.3,4.6-5.8,5.8-10.7c2.4-18-0.3-35.1-7.3-51.9c-3.7-8.6-8.2-15.6-15.9-22.3
		c-1.2,3.7-2.4,6.4-3.1,9.8c-4.9,24.7,0.9,47.3,13.7,68.4C729.8,301.1,732.6,303.2,735,305.3L735,305.3z"/>
	<path class="st0" d="M147,305.3c2.4-2.4,5.5-4.6,6.7-7c12.8-21.1,18.3-44,13.4-68.4c-0.6-2.7-2.1-5.8-3.4-9.8
		c-3.4,4-6.4,7-8.9,10.4c-12.8,19.2-16.2,40.9-14,63.5C141.5,298,142.1,302,147,305.3L147,305.3z"/>
	<path class="st0" d="M762.5,345c4.3-2.7,5.8-7.3,6.4-12.2c3.4-13.7,3.7-27.8,1.2-41.5c-2.1-11.6-5.5-22.3-14-32.4
		c-2.1,3.7-3.4,6.1-4.3,9.5c-7.9,23.8-6.1,46.7,4,69.6C757,340.7,758.8,344.1,762.5,345L762.5,345z"/>
	<path class="st0" d="M119.8,344.7c17.4-12.2,20.8-66.3,5.5-85.5c-2.1,3.4-4.3,6.1-6.1,9.5c-10.4,21.7-11,44.3-5.5,67.2
		C114.6,339.5,116.1,343.2,119.8,344.7z"/>
	<path class="st0" d="M178.1,270.5c20.1-7.9,37.6-56.5,28.7-80c-2.1,1.5-3.7,2.7-5.5,4c-18.9,18.3-26.3,41.2-26.6,67.2
		C174.7,264.7,175,268.1,178.1,270.5L178.1,270.5z"/>
	<path class="st0" d="M693.5,262.9c2.4,3.1,5.5,6.4,9.8,7c11.3-15.9-7.6-68.1-28.7-78.8c-2.7,9.5-3.1,14.4-1.2,26.9
		C676.1,234.8,683.1,249.5,693.5,262.9L693.5,262.9z"/>
	<path class="st0" d="M369.5,163.1c-0.1,9.5-6.1,15.4-17.8,18.6c-25.5,7.2-50.4,17.5-74,31c0-63.6,0-127.2,0-190.8
		c25.2,0,50.5,0,75.7,0c11.3,0,16.9,4.8,16.8,14.3c-0.2,13.4-0.3,26.7-0.5,40.1c-0.1,5.3-2.2,9.6-6.3,13c-0.6,0.5-5.6,3.5-15,9.7
		c9.6,3.6,14.7,5.6,15.3,6c4.4,2.6,6.5,6.6,6.5,12C369.9,132.3,369.7,147.7,369.5,163.1L369.5,163.1z M341.1,82
		c0.2-13.2,0.4-26.4,0.5-39.6c-11.9,0.5-23.8,1.1-35.6,1.7c-0.1,17.3-0.3,34.6-0.4,51.9c7.2-1.3,14.4-2.6,21.7-3.7
		C331.9,88.8,336.5,85.3,341.1,82L341.1,82z M340.7,164.5c0.2-15.5,0.4-31,0.6-46.5c-4.6-1.8-9.2-3.5-13.8-5.3
		c-7.4,1.5-14.8,3.1-22.1,4.9c-0.2,19.7-0.3,39.4-0.5,59C316.6,171.9,328.6,167.9,340.7,164.5L340.7,164.5z"/>
	<path class="st0" d="M491.9,173.4c-9.7-1.5-19.4-2.6-29.1-3.3c-2-9.5-4-19-6-28.4c-12.2-0.5-24.5-0.4-36.7,0.2c-2,9.5-4,19-6,28.6
		c-9.7,0.8-19.4,2-29,3.7c0-0.1,0-0.3,0-0.4c13.2-52.9,26.1-102.8,38.6-152.1h30C466,71,478.9,120.8,491.9,173.4L491.9,173.4z
		 M452.6,122.6c-4.8-22.3-9.5-44.5-14.2-66.7c-4.7,22.2-9.5,44.4-14.4,66.9C433.6,122.4,443.1,122.4,452.6,122.6L452.6,122.6z"/>
	<path class="st0" d="M604,212.7c-9.2-5.3-18.6-10-28.2-14.3c-10.4-31.9-21-61.1-31.8-88.4c-0.1-4.9-0.1-9.9-0.2-14.8
		c9.3,1.4,18.6,3,27.8,4.7c-0.2-18.5-0.4-37-0.5-55.5c-11.9-0.7-23.9-1.2-35.9-1.7c0.6,47,1.3,94.1,1.9,141.1
		c-9.5-2.9-19.1-5.4-28.8-7.4c-0.6-51.5-1.3-103-1.9-154.5c25.2,0,50.5,0,75.7,0c11.5,0,17.2,5.7,17.2,17.3
		c0,22.8,0.1,45.6,0.1,68.5c0,8-2.6,12.4-7.9,13.2c-2.8,0.4-8.8-0.7-18.1-2.9C583.9,147,594.2,178.3,604,212.7L604,212.7z"/>
	<path class="st0" d="M319.2,273.6L319.2,273.6C319.2,273.6,319.2,273.6,319.2,273.6z"/>
	<path class="st0" d="M562.4,273.6L562.4,273.6C562.4,273.6,562.3,273.6,562.4,273.6z"/>
	<path class="st0" d="M529.6,507.9C529.6,507.9,529.5,507.9,529.6,507.9C529.6,507.9,529.6,507.9,529.6,507.9z"/>
</g>
</svg>
